<?xml version="1.0" encoding="utf-8"?>
<!-- Generator: Adobe Illustrator 24.1.1, SVG Export Plug-In . SVG Version: 6.00 Build 0)  -->
<svg version="1.1" id="Layer_1" xmlns="http://www.w3.org/2000/svg" xmlns:xlink="http://www.w3.org/1999/xlink" x="0px" y="0px"
	 viewBox="0 0 512 512" style="enable-background:new 0 0 512 512;" xml:space="preserve">
<g>
	<path d="M47.3,318.4l182.9,182.9c6.8,6.8,16.2,10.7,25.9,10.7s19.1-3.9,25.9-10.7l182.9-182.9c14.3-14.3,14.3-37.4,0-51.7
		c-14.3-14.3-37.4-14.3-51.7,0l-157,157l-157-157c-14.3-14.3-37.4-14.3-51.7,0C33,281,33,304.2,47.3,318.4L47.3,318.4z"/>
	<path d="M47.3,62.4l182.9,182.9c6.8,6.8,16.2,10.7,25.9,10.7s19.1-3.9,25.9-10.7L464.7,62.4c14.3-14.3,14.3-37.4,0-51.7
		c-14.3-14.3-37.4-14.3-51.7,0l-157,157L99,10.7c-14.3-14.3-37.4-14.3-51.7,0C33,25,33,48.2,47.3,62.4L47.3,62.4z"/>
</g>
</svg>
